<svg width="26" height="26" viewBox="0 0 26 26" fill="none" xmlns="http://www.w3.org/2000/svg">
<path d="M21.4118 3.05871V1.5293H16.8235V3.05871H9.17647V1.5293H4.58824V3.05871H0V25.9999H26V3.05871H21.4118ZM18.3529 3.05871H19.8824V6.11753H18.3529V3.05871ZM6.11765 3.05871H7.64706V6.11753H6.11765V3.05871ZM24.4706 24.4705H1.52941V10.8266H24.4706V24.4705ZM1.52941 9.29718V4.58812H4.58824V7.64694H9.17647V4.58812H16.8235V7.64694H21.4118V4.58812H24.4706V9.29718H1.52941Z" fill="#C9E2FF"/>
<path d="M4.354 15.1763H7.09085V12.4395H4.354V15.1763ZM8.00313 15.1763H10.74V12.4395H8.00313V15.1763ZM11.6522 15.1763H14.3891V12.4395H11.6522V15.1763ZM15.3014 15.1763H18.0382V12.4395H15.3014V15.1763ZM4.354 18.8254H7.09085V16.0886H4.354V18.8254ZM8.00313 18.8254H10.74V16.0886H8.00313V18.8254ZM11.6522 18.8254H14.3891V16.0886H11.6522V18.8254ZM15.3014 18.8254H18.0382V16.0886H15.3014V18.8254ZM4.354 22.4745H7.09085V19.7377H4.354V22.4745ZM8.00313 22.4745H10.74V19.7377H8.00313V22.4745ZM11.6522 22.4745H14.3891V19.7377H11.6522V22.4745ZM15.3014 22.4745H18.0382V19.7377H15.3014V22.4745Z" fill="#C9E2FF"/>
<path d="M18.874 15.1763H21.6109V12.4395H18.874V15.1763ZM18.874 18.8254H21.6109V16.0886H18.874V18.8254ZM18.874 22.4745H21.6109V19.7377H18.874V22.4745Z" fill="#C9E2FF"/>
</svg>
