<svg width="45" height="46" viewBox="0 0 45 46" fill="none" xmlns="http://www.w3.org/2000/svg">
<rect opacity="0.4" y="0.687012" width="44.3443" height="44.3443" rx="6" fill="#FFE8DA"/>
<path d="M12.3442 14.687H18.3442C19.4051 14.687 20.4225 15.1084 21.1727 15.8586C21.9228 16.6087 22.3442 17.6261 22.3442 18.687V32.687C22.3442 31.8914 22.0282 31.1283 21.4656 30.5657C20.9029 30.0031 20.1399 29.687 19.3442 29.687H12.3442V14.687Z" stroke="#FFA26B" stroke-width="2" stroke-linecap="round" stroke-linejoin="round"/>
<path d="M32.3442 14.687H26.3442C25.2834 14.687 24.266 15.1084 23.5158 15.8586C22.7657 16.6087 22.3442 17.6261 22.3442 18.687V32.687C22.3442 31.8914 22.6603 31.1283 23.2229 30.5657C23.7855 30.0031 24.5486 29.687 25.3442 29.687H32.3442V14.687Z" stroke="#FFA26B" stroke-width="2" stroke-linecap="round" stroke-linejoin="round"/>
</svg>
