<svg width="45" height="46" viewBox="0 0 45 46" fill="none" xmlns="http://www.w3.org/2000/svg">
<rect opacity="0.4" y="0.687012" width="44.3443" height="44.3443" rx="6" fill="#FDF8CD"/>
<path d="M27 31.9844V29.9844C27 28.9235 26.5786 27.9061 25.8284 27.1559C25.0783 26.4058 24.0609 25.9844 23 25.9844H15C13.9391 25.9844 12.9217 26.4058 12.1716 27.1559C11.4214 27.9061 11 28.9235 11 29.9844V31.9844" stroke="#F7E444" stroke-width="2" stroke-linecap="round" stroke-linejoin="round"/>
<path d="M19 21.9844C21.2091 21.9844 23 20.1935 23 17.9844C23 15.7752 21.2091 13.9844 19 13.9844C16.7909 13.9844 15 15.7752 15 17.9844C15 20.1935 16.7909 21.9844 19 21.9844Z" stroke="#F7E444" stroke-width="2" stroke-linecap="round" stroke-linejoin="round"/>
<path d="M33 31.9843V29.9843C32.9993 29.098 32.7044 28.237 32.1614 27.5366C31.6184 26.8361 30.8581 26.3358 30 26.1143" stroke="#F7E444" stroke-width="2" stroke-linecap="round" stroke-linejoin="round"/>
<path d="M26 14.1143C26.8604 14.3346 27.623 14.835 28.1676 15.5366C28.7122 16.2382 29.0078 17.1011 29.0078 17.9893C29.0078 18.8774 28.7122 19.7403 28.1676 20.4419C27.623 21.1436 26.8604 21.644 26 21.8643" stroke="#F7E444" stroke-width="2" stroke-linecap="round" stroke-linejoin="round"/>
</svg>
