<svg width="45" height="46" viewBox="0 0 45 46" fill="none" xmlns="http://www.w3.org/2000/svg">
<rect opacity="0.4" y="0.702637" width="44.3443" height="44.3443" rx="6" fill="#FFE8DA"/>
<path d="M29 31V29C29 27.9391 28.5786 26.9217 27.8284 26.1716C27.0783 25.4214 26.0609 25 25 25H18C16.9391 25 15.9217 25.4214 15.1716 26.1716C14.4214 26.9217 14 27.9391 14 29V31" stroke="#FA9FBD" stroke-width="2" stroke-linecap="round" stroke-linejoin="round"/>
<path d="M21.5 21C23.7091 21 25.5 19.2091 25.5 17C25.5 14.7909 23.7091 13 21.5 13C19.2909 13 17.5 14.7909 17.5 17C17.5 19.2091 19.2909 21 21.5 21Z" stroke="#FA9FBD" stroke-width="2" stroke-linecap="round" stroke-linejoin="round"/>
<path d="M33 18V24" stroke="#FA9FBD" stroke-width="2" stroke-linecap="round" stroke-linejoin="round"/>
<path d="M36 21H30" stroke="#FA9FBD" stroke-width="2" stroke-linecap="round" stroke-linejoin="round"/>
</svg>
